<?xml version="1.0" encoding="UTF-8"?>
<svg id="Layer_2" data-name="Layer 2" xmlns="http://www.w3.org/2000/svg" viewBox="0 0 503.33 322.91">
  <defs>
    <style>
      .cls-1 {
        fill: #adb4bf;
        stroke-width: 2px;
      }

      .cls-1, .cls-2, .cls-3 {
        stroke-linecap: round;
      }

      .cls-1, .cls-3 {
        stroke: #adb4bf;
        stroke-linejoin: round;
      }

      .cls-2 {
        stroke: #fff;
        stroke-miterlimit: 10;
        stroke-width: 6px;
      }

      .cls-2, .cls-3 {
        fill: none;
      }

      .cls-4 {
        fill: #357266;
        stroke-width: 0px;
      }
    </style>
  </defs>
  <path class="cls-4" d="M139.52,83.07c-8.32-2.41-17.04-3.74-26.02-3.9-59.86-1.04-109.34,50.79-110.48,115.76-.36,20.38,4.09,39.61,12.18,56.47,15.9,33.02,45.85,56.88,81.43,62.05l12.77,1.03,310.8,5.42,14.49-1.07c32.65-5.45,58.63-30.98,64.41-63.6.3-1.56.53-3.12.71-4.73.05-.38.1-.78.12-1.18.22-2.12.35-4.29.38-6.48.76-43.31-33.89-79.05-77.39-79.81h-2.18c.1-.7-.05.68,0-.01.38-3.82.61-7.69.68-11.58,1.41-80.54-64.12-146.98-146.35-148.42-59.03-1.03-110.62,31.71-135.55,80.06h0Z"/>
  <g>
    <polygon class="cls-1" points="64.42 190.15 67.64 186.85 71.08 190.26 64.42 190.15"/>
    <path class="cls-1" d="M487.7,259.02l11.25.2c-5.7,30.17-31.43,53.76-63.8,58.76-.31.06-.62.09-.95.13,0,0-.02.02-.04,0l-334.27-5.5c-35.29-4.82-65.02-26.93-80.82-57.5,1.17-1.57,3.69-3.79,8.53-3.81,7.45-.04,10.66,5.36,10.66,5.36l14.16.25.47-27.18,7.48-6.95.24-13.68,7-6.5,6.44,6.43-.29,16.58,4.76.08-.19,11.11,5.85.1.71-40.63,8.06.14.2-1.82,24.69.43-.07,4.18,7.59.13-1.01,57.75,16.46.29.37-21.3,16.6.29,1.72-98.6,15.03.26-.15,8.67,7.11.12.18-10.04,2.07.04.42-24.19,3.33.06.15-8.36,2.36.04-.15,8.36,4.28.07-.54,30.88,13.92.24-.74,42.16,6.97.12-.38,22.06,10.13.18.04,6.23,6.33.11.39-3.64,6.8.12-.11,6.23,6.64-.03,2.64-5.3,16.29.28-.69,39.72,7.11.12.13-7.31,5.85.1.23-12.94,10.13.18.26-15.05,3.8.07.18-10.06,8.85.15-.1,5.8,5.29,5.27-.76,43.67,7.75.14,1.7-97.69,12.05-5.65,4.13,4.11,10.28.18-.15,8.51,2.69.05-.04,2.3,8.71.15-.93,53.4,9.33.16-.06,3.5,6.97.12.23-12.94,4.59.08.07-3.95,7.44.13.15-8.82,8.85.15.09-4.88,7.75.14-.06,3.35,11.08.19-.9,51.43,10.76-.12.49-27.84,2.59-3.91,1.83-4.23.24,3.96,12.34.22.3-17.34,18.98.33s4.97-3.87,6.24-4.16c1.29-.27,5.36,2.37,5.36,2.37l9.33.16-.6,34.54,8.85.15-.09,5.03,6.8.12-.23,13.39Z"/>
    <path class="cls-1" d="M499.77,253.75c-.03.37-.07.74-.12,1.1l.02-1.1h.1Z"/>
    <line class="cls-3" x1="324.31" y1="158.99" x2="324.71" y2="136.06"/>
    <line class="cls-3" x1="188.87" y1="104.35" x2="189.14" y2="89.25"/>
    <polyline class="cls-1" points="67.64 186.85 67.37 202.6 67.75 190.21 71.08 190.26 67.54 192.96 64.63 189.95"/>
  </g>
  <path class="cls-2" d="M139.52,83.07c-8.32-2.41-17.04-3.74-26.02-3.9-59.86-1.04-109.34,50.79-110.48,115.76-.36,20.38,4.09,39.61,12.18,56.47,15.9,33.02,45.85,56.88,81.43,62.05l12.77,1.03,310.8,5.42,14.49-1.07c32.65-5.45,58.63-30.98,64.41-63.6.3-1.56.53-3.12.71-4.73.05-.38.1-.78.12-1.18.22-2.12.35-4.29.38-6.48.76-43.31-33.89-79.05-77.39-79.81h-2.18c.1-.7-.05.68,0-.01.38-3.82.61-7.69.68-11.58,1.41-80.54-64.12-146.98-146.35-148.42-59.03-1.03-110.62,31.71-135.55,80.06"/>
</svg>