<?xml version="1.0" encoding="UTF-8"?>
<svg xmlns="http://www.w3.org/2000/svg" viewBox="0 0 279.66 210.09">
  <defs>
    <style>
      .cls-1 {
        fill: #231f20;
      }

      .cls-1, .cls-2, .cls-3 {
        stroke-width: 0px;
      }

      .cls-2 {
        fill: #5fbee3;
      }

      .cls-3 {
        fill: #99cf91;
      }

      .cls-4 {
        opacity: .25;
      }
    </style>
  </defs>
  <g id="Layer_1" data-name="Layer 1">
    <g class="cls-4">
      <path class="cls-1" d="M196.29,24.77l-37.09,70.65c-10.84-3.76-22.81-5.64-35.91-5.64-18.79,0-28.18,5.11-28.18,15.33,0,4.89,2.62,8.72,7.86,11.47,5.24,2.75,12.71,4.13,22.41,4.13,13.11,0,24.38-2.36,33.82-7.08l37.09,75.76c-10.49,6.29-23.16,11.32-38.01,15.07-14.86,3.76-29.05,5.64-42.6,5.64-33.99,0-61.06-9.81-81.2-29.42-20.14-19.61-30.21-43.75-30.21-72.41,0-30.32,10.49-55.33,31.46-75.04C56.7,13.52,83.35,3.66,115.68,3.66c13.98,0,28.42,1.9,43.32,5.7,14.9,3.8,27.33,8.94,37.29,15.4Z"/>
      <path class="cls-1" d="M77.81,210.09v-3.57c25.86-8.1,48.06-22.06,66.58-41.88-22.72-3.44-40.26-11.78-52.62-25.04-12.37-13.26-18.55-29.7-18.55-49.35,0-24.84,9.65-45.21,28.97-61.11,19.31-15.9,44.3-23.85,74.97-23.85s55.31,8.13,74.18,24.38c18.87,16.25,28.31,37.41,28.31,63.49,0,21.76-6.73,42.74-20.18,62.96-13.46,20.22-33.12,38.21-58.98,53.97h-122.68ZM177.95,79.95c-5.16,0-9.44,1.7-12.84,5.09-3.41,3.39-5.11,7.64-5.11,12.75,0,5.37,1.66,9.82,4.98,13.34,3.32,3.52,7.56,5.28,12.71,5.28s9.26-1.83,12.84-5.48c3.58-3.65,5.37-8.04,5.37-13.15s-1.73-9.25-5.18-12.68c-3.45-3.44-7.71-5.15-12.78-5.15Z"/>
      <circle class="cls-1" cx="178.64" cy="98.19" r="18.65"/>
    </g>
  </g>
  <g id="Layer_2" data-name="Layer 2">
    <g>
      <path class="cls-2" d="M192.01,21.1l-37.09,70.65c-10.84-3.76-22.81-5.64-35.91-5.64-18.79,0-28.18,5.11-28.18,15.33,0,4.89,2.62,8.72,7.86,11.47,5.24,2.75,12.71,4.13,22.41,4.13,13.11,0,24.38-2.36,33.82-7.08l37.09,75.76c-10.49,6.29-23.16,11.32-38.01,15.07-14.86,3.76-29.05,5.64-42.6,5.64-33.99,0-61.06-9.81-81.2-29.42C10.07,157.39,0,133.25,0,104.59c0-30.32,10.49-55.33,31.46-75.04C52.43,9.85,79.08,0,111.41,0c13.98,0,28.42,1.9,43.32,5.7,14.9,3.8,27.33,8.94,37.29,15.4Z"/>
      <path class="cls-3" d="M73.54,206.43v-3.57c25.86-8.1,48.06-22.06,66.58-41.88-22.72-3.44-40.26-11.78-52.62-25.04-12.37-13.26-18.55-29.7-18.55-49.35,0-24.84,9.65-45.21,28.97-61.11C117.23,9.59,142.22,1.64,172.89,1.64s55.31,8.13,74.18,24.38c18.87,16.25,28.31,37.41,28.31,63.49,0,21.76-6.73,42.74-20.18,62.96-13.46,20.22-33.12,38.21-58.98,53.97h-122.68ZM173.68,76.29c-5.16,0-9.44,1.7-12.84,5.09-3.41,3.39-5.11,7.64-5.11,12.75,0,5.37,1.66,9.82,4.98,13.34,3.32,3.52,7.56,5.28,12.71,5.28s9.26-1.83,12.84-5.48c3.58-3.65,5.37-8.04,5.37-13.15s-1.73-9.25-5.18-12.68c-3.45-3.44-7.71-5.15-12.78-5.15Z"/>
      <circle class="cls-2" cx="174.37" cy="94.52" r="18.65"/>
    </g>
  </g>
</svg>