<?xml version="1.0" encoding="UTF-8"?>
<svg id="Layer_1" data-name="Layer 1" xmlns="http://www.w3.org/2000/svg" viewBox="0 0 276.39 207.43">
  <defs>
    <style>
      .cls-1 {
        fill: none;
        stroke: #000;
        stroke-miterlimit: 10;
      }

      .cls-2 {
        fill: #5fbee3;
      }

      .cls-2, .cls-3 {
        stroke-width: 0px;
      }

      .cls-3 {
        fill: #99cf91;
      }
    </style>
  </defs>
  <g id="Layer_1-2" data-name="Layer 1">
    <g>
      <g>
        <path class="cls-2" d="M192.51,21.78l-37.09,70.65c-10.84-3.76-22.81-5.64-35.91-5.64-18.79,0-28.18,5.11-28.18,15.33,0,4.89,2.62,8.72,7.86,11.47s12.71,4.13,22.41,4.13c13.11,0,24.38-2.36,33.82-7.08l37.09,75.76c-10.49,6.29-23.16,11.32-38.01,15.07-14.86,3.76-29.05,5.64-42.6,5.64-33.99,0-61.06-9.81-81.2-29.42S.49,133.94.49,105.28C.49,74.96,10.98,49.95,31.95,30.24,52.92,10.54,79.57.68,111.9.68c13.98,0,28.42,1.9,43.32,5.7,14.9,3.8,27.33,8.93,37.29,15.4Z"/>
        <path class="cls-3" d="M74.04,207.11v-3.57c25.86-8.1,48.06-22.06,66.58-41.88-22.72-3.44-40.26-11.78-52.62-25.04-12.37-13.26-18.55-29.7-18.55-49.35,0-24.84,9.65-45.21,28.97-61.11C117.73,10.26,142.72,2.31,173.39,2.31s55.31,8.13,74.18,24.38,28.31,37.41,28.31,63.49c0,21.76-6.73,42.74-20.18,62.96-13.46,20.22-33.12,38.21-58.98,53.97h-122.68ZM174.18,76.97c-5.16,0-9.44,1.7-12.84,5.09-3.41,3.39-5.11,7.64-5.11,12.75,0,5.37,1.66,9.82,4.98,13.34s7.56,5.28,12.71,5.28,9.26-1.83,12.84-5.48c3.58-3.65,5.37-8.04,5.37-13.15s-1.73-9.25-5.18-12.68c-3.44-3.44-7.7-5.15-12.77-5.15Z"/>
        <circle class="cls-2" cx="174.87" cy="95.2" r="18.65"/>
      </g>
      <g>
        <path class="cls-1" d="M76.16,202.69c-17.81-4.63-32.96-13.02-45.45-25.18C10.57,157.9.5,133.76.5,105.09c0-30.31,10.49-55.33,31.46-75.03S79.58.5,111.91.5c11.45,0,23.2,1.27,35.27,3.82"/>
        <path class="cls-1" d="M147.18,4.32c8.22-1.45,16.96-2.18,26.22-2.18,30.58,0,55.31,8.13,74.18,24.38s28.31,37.41,28.31,63.48c0,21.76-6.73,42.75-20.18,62.96-13.46,20.22-33.12,38.21-58.98,53.97h-122.68v-3.56c.71-.22,1.41-.45,2.11-.68"/>
      </g>
    </g>
  </g>
</svg>